<svg width="516" height="516" viewBox="0 0 516 516" fill="none" xmlns="http://www.w3.org/2000/svg">
<rect width="516" height="516" fill="#26065D"/>
<g clip-path="url(#clip0_57_1343)">
<path d="M86.0542 94.0545C86.0542 89.6362 89.6359 86.0544 94.0542 86.0544H516V516H86.0542V94.0545Z" fill="#F8F3F0"/>
<g clip-path="url(#clip1_57_1343)">
<rect width="430" height="430" transform="translate(86.0542 86.0544)" fill="#E9E8EB"/>
<rect x="114.926" y="143.148" width="150.876" height="63.2552" rx="3.5" stroke="#130032" stroke-opacity="0.25" stroke-dasharray="5 5"/>
<g opacity="0.5">
<path fill-rule="evenodd" clip-rule="evenodd" d="M176.489 160.9H204.239V188.65H176.489V160.9ZM179.572 163.983H201.155V185.567L187.28 171.692L179.572 179.4V163.983ZM179.572 183.761V185.567H196.795L187.28 176.052L179.572 183.761Z" fill="#130032" fill-opacity="0.75"/>
<path d="M198.072 170.15C198.072 171.853 196.691 173.234 194.989 173.234C193.286 173.234 191.905 171.853 191.905 170.15C191.905 168.447 193.286 167.067 194.989 167.067C196.691 167.067 198.072 168.447 198.072 170.15Z" fill="#130032" fill-opacity="0.75"/>
</g>
<g opacity="0.3">
<rect width="14.5" height="14.5" transform="translate(247.554 147.054)" fill="#EDE5FF"/>
<path d="M255.659 154.304L258.856 151.107L258.002 150.252L254.804 153.45L251.606 150.252L250.752 151.107L253.95 154.304L250.752 157.502L251.606 158.357L254.804 155.159L258.002 158.357L258.856 157.502L255.659 154.304Z" fill="#130032" fill-opacity="0.75"/>
</g>
<path d="M300.516 117.267C300.516 112.849 304.098 109.267 308.516 109.267H525.337C529.755 109.267 533.337 112.849 533.337 117.267V551.054C533.337 555.472 529.755 559.054 525.337 559.054H308.516C304.098 559.054 300.516 555.472 300.516 551.054V117.267Z" fill="white"/>
<rect x="114.322" y="221.322" width="154.465" height="23.313" rx="3.73233" stroke="#130032" stroke-width="0.535346"/>
<path d="M155.102 235.553C153.776 235.553 153.004 234.684 153.004 233.178V230.12H153.783V233.193C153.783 234.272 154.233 234.819 155.102 234.819C155.972 234.819 156.422 234.272 156.422 233.193V230.12H157.208V233.178C157.208 234.684 156.437 235.553 155.102 235.553ZM159.786 230.12C161.082 230.12 161.884 230.787 161.884 231.866C161.884 232.953 161.09 233.62 159.786 233.62H159.059V235.479H158.279V230.12H159.786ZM159.059 232.893H159.786C160.655 232.893 161.105 232.541 161.105 231.866C161.105 231.199 160.648 230.839 159.786 230.839H159.059V232.893ZM163.579 230.12V234.744H166.27V235.479H162.8V230.12H163.579ZM169.067 235.553C167.628 235.553 166.571 234.399 166.571 232.803C166.571 231.206 167.62 230.045 169.067 230.045C170.521 230.045 171.57 231.206 171.57 232.803C171.57 234.399 170.521 235.553 169.067 235.553ZM169.067 234.819C170.071 234.819 170.791 233.98 170.791 232.803C170.791 231.619 170.079 230.779 169.067 230.779C168.063 230.779 167.351 231.619 167.351 232.803C167.351 233.98 168.063 234.819 169.067 234.819ZM176.861 235.479H176.044L175.541 234.114H173.203L172.693 235.479H171.884L173.915 230.12H174.822L176.861 235.479ZM174.372 230.959L173.458 233.417H175.279L174.372 230.959ZM179.458 230.12C180.957 230.12 182.014 231.229 182.014 232.803C182.014 234.369 180.957 235.479 179.458 235.479H177.54V230.12H179.458ZM178.319 234.744H179.458C180.508 234.744 181.235 233.957 181.235 232.803C181.235 231.641 180.515 230.854 179.458 230.854H178.319V234.744ZM188.659 230.12V230.854H185.699V232.361H188.097V233.088H185.699V234.744H188.659V235.479H184.919V230.12H188.659ZM194.868 230.12V235.479H194.096V231.544L192.507 235.479H192.028L190.431 231.536V235.479H189.659V230.12H190.604L192.268 234.257L193.924 230.12H194.868ZM200.524 235.479H199.708L199.205 234.114H196.867L196.357 235.479H195.548L197.579 230.12H198.486L200.524 235.479ZM198.036 230.959L197.122 233.417H198.943L198.036 230.959ZM201.983 235.479H201.204V230.12H201.983V235.479ZM203.927 230.12V234.744H206.618V235.479H203.148V230.12H203.927ZM209.975 230.12V234.744H212.665V235.479H209.195V230.12H209.975ZM215.462 235.553C214.023 235.553 212.967 234.399 212.967 232.803C212.967 231.206 214.016 230.045 215.462 230.045C216.916 230.045 217.966 231.206 217.966 232.803C217.966 234.399 216.916 235.553 215.462 235.553ZM215.462 234.819C216.467 234.819 217.186 233.98 217.186 232.803C217.186 231.619 216.474 230.779 215.462 230.779C214.458 230.779 213.746 231.619 213.746 232.803C213.746 233.98 214.458 234.819 215.462 234.819ZM221.09 233.283V232.571H223.346V234.677C222.792 235.239 222.057 235.553 221.315 235.553C219.876 235.553 218.819 234.392 218.819 232.803C218.819 231.206 219.876 230.045 221.315 230.045C222.11 230.045 222.807 230.397 223.264 231.027L222.649 231.461C222.319 231.012 221.87 230.779 221.315 230.779C220.318 230.779 219.599 231.619 219.599 232.803C219.599 233.98 220.318 234.826 221.315 234.826C221.787 234.826 222.229 234.662 222.604 234.354V233.283H221.09ZM226.794 235.553C225.355 235.553 224.299 234.399 224.299 232.803C224.299 231.206 225.348 230.045 226.794 230.045C228.248 230.045 229.298 231.206 229.298 232.803C229.298 234.399 228.248 235.553 226.794 235.553ZM226.794 234.819C227.799 234.819 228.518 233.98 228.518 232.803C228.518 231.619 227.806 230.779 226.794 230.779C225.79 230.779 225.078 231.619 225.078 232.803C225.078 233.98 225.79 234.819 226.794 234.819Z" fill="#130032"/>
<path d="M117.189 112.649V121.527H122.354V122.937H115.693V112.649H117.189ZM126.586 123.081C124.572 123.081 123.133 121.527 123.133 119.369C123.133 117.196 124.572 115.642 126.586 115.642C128.586 115.642 130.04 117.196 130.04 119.369C130.04 121.527 128.586 123.081 126.586 123.081ZM126.586 121.786C127.781 121.786 128.615 120.793 128.615 119.369C128.615 117.93 127.781 116.937 126.586 116.937C125.378 116.937 124.543 117.93 124.543 119.369C124.543 120.793 125.392 121.786 126.586 121.786ZM136.865 116.923L136.951 115.786H138.231V122.103C138.231 124.52 136.936 126.002 134.807 126.002C133.483 126.002 132.275 125.498 131.498 124.621L132.26 123.614C132.98 124.347 133.757 124.693 134.677 124.693C136.044 124.693 136.807 123.772 136.807 122.117V121.844C136.26 122.592 135.44 123.038 134.476 123.038C132.649 123.038 131.325 121.47 131.325 119.326C131.325 117.196 132.663 115.642 134.476 115.642C135.469 115.642 136.318 116.117 136.865 116.923ZM134.778 121.743C135.958 121.743 136.807 120.736 136.807 119.326C136.807 117.944 135.958 116.937 134.778 116.937C133.584 116.937 132.735 117.944 132.735 119.326C132.735 120.736 133.584 121.743 134.778 121.743ZM143.111 123.081C141.096 123.081 139.657 121.527 139.657 119.369C139.657 117.196 141.096 115.642 143.111 115.642C145.111 115.642 146.564 117.196 146.564 119.369C146.564 121.527 145.111 123.081 143.111 123.081ZM143.111 121.786C144.305 121.786 145.139 120.793 145.139 119.369C145.139 117.93 144.305 116.937 143.111 116.937C141.902 116.937 141.067 117.93 141.067 119.369C141.067 120.793 141.916 121.786 143.111 121.786ZM150.614 123.081C149.333 123.081 148.168 122.606 147.477 121.873L148.182 120.894C148.815 121.527 149.707 121.873 150.571 121.873C151.448 121.873 152.024 121.47 152.024 120.908C152.024 120.247 151.175 120.074 150.412 119.916C149.276 119.7 147.794 119.297 147.794 117.772C147.794 116.506 148.83 115.642 150.326 115.642C151.477 115.642 152.427 116.031 153.218 116.664L152.513 117.657C151.808 117.124 151.06 116.865 150.326 116.865C149.578 116.865 149.132 117.196 149.132 117.7C149.132 118.405 150.053 118.578 150.6 118.678C151.952 118.937 153.362 119.369 153.362 120.865C153.362 122.203 152.24 123.081 150.614 123.081Z" fill="#130032"/>
<circle cx="128.97" cy="322.299" r="14.5436" fill="#130032"/>
<circle cx="128.97" cy="361.456" r="14.5436" fill="white"/>
<circle cx="128.97" cy="361.456" r="13.9843" stroke="#130032" stroke-opacity="0.15" stroke-width="1.11874"/>
<circle cx="128.97" cy="400.612" r="14.5436" fill="#3A77EF"/>
<circle cx="128.97" cy="400.612" r="13.9843" stroke="#130032" stroke-opacity="0.15" stroke-width="1.11874"/>
<circle cx="128.97" cy="439.768" r="14.5436" fill="black"/>
<circle cx="128.97" cy="439.768" r="13.9843" stroke="#130032" stroke-opacity="0.15" stroke-width="1.11874"/>
<path d="M156.545 321.68V318.702H157.581V325.824H156.545V322.656H153.029V325.824H151.993V318.702H153.029V321.68H156.545ZM161.023 325.924C159.638 325.924 158.632 324.848 158.632 323.354C158.632 321.849 159.598 320.774 160.973 320.774C162.328 320.774 163.314 321.829 163.314 323.284C163.314 323.433 163.304 323.573 163.284 323.692H159.628C159.748 324.519 160.286 325.047 161.023 325.047C161.601 325.047 162.019 324.808 162.398 324.26L163.165 324.708C162.716 325.495 161.969 325.924 161.023 325.924ZM159.628 322.945H162.288C162.208 322.158 161.69 321.65 160.973 321.65C160.256 321.65 159.748 322.158 159.628 322.945ZM168.001 321.6V320.873H168.988V325.824H168.091L168.041 325.037C167.663 325.595 167.075 325.924 166.388 325.924C165.123 325.924 164.206 324.838 164.206 323.344C164.206 321.859 165.123 320.774 166.388 320.774C167.045 320.774 167.613 321.082 168.001 321.6ZM166.597 325.027C167.414 325.027 168.001 324.33 168.001 323.344C168.001 322.367 167.414 321.67 166.597 321.67C165.77 321.67 165.182 322.367 165.182 323.344C165.182 324.33 165.77 325.027 166.597 325.027ZM173.77 321.6V318.502H174.756V325.824H173.86L173.81 325.047C173.431 325.595 172.844 325.924 172.156 325.924C170.891 325.924 169.975 324.848 169.975 323.354C169.975 321.849 170.891 320.774 172.156 320.774C172.824 320.774 173.392 321.082 173.77 321.6ZM172.366 325.027C173.192 325.027 173.77 324.34 173.77 323.354C173.77 322.367 173.192 321.67 172.366 321.67C171.529 321.67 170.951 322.357 170.951 323.354C170.951 324.34 171.529 325.027 172.366 325.027ZM178.144 325.924C176.759 325.924 175.753 324.848 175.753 323.354C175.753 321.849 176.719 320.774 178.094 320.774C179.449 320.774 180.435 321.829 180.435 323.284C180.435 323.433 180.425 323.573 180.405 323.692H176.749C176.869 324.519 177.407 325.047 178.144 325.047C178.722 325.047 179.14 324.808 179.518 324.26L180.286 324.708C179.837 325.495 179.09 325.924 178.144 325.924ZM176.749 322.945H179.409C179.329 322.158 178.811 321.65 178.094 321.65C177.377 321.65 176.869 322.158 176.749 322.945ZM182.414 325.824H181.438V320.873H182.314L182.354 321.839H182.364C182.603 321.162 183.151 320.764 183.848 320.764C183.968 320.764 184.077 320.774 184.197 320.803L184.137 321.72C183.988 321.68 183.848 321.66 183.699 321.66C183.051 321.66 182.603 322.148 182.454 323.015C182.424 323.204 182.414 323.463 182.414 323.901V325.824ZM191.197 322.079C192.053 322.367 192.532 322.985 192.532 323.852C192.532 325.067 191.545 325.824 189.962 325.824H187.421V318.702H189.732C191.247 318.702 192.153 319.399 192.153 320.564C192.153 321.242 191.804 321.76 191.197 322.079ZM189.713 319.658H188.457V321.67H189.713C190.649 321.67 191.137 321.312 191.137 320.644C191.137 319.987 190.669 319.658 189.713 319.658ZM188.457 324.858H189.942C190.978 324.858 191.526 324.489 191.526 323.782C191.526 322.995 190.998 322.597 189.942 322.597H188.457V324.858ZM197.204 321.6V320.873H198.191V325.824H197.294L197.244 325.037C196.866 325.595 196.278 325.924 195.591 325.924C194.326 325.924 193.409 324.838 193.409 323.344C193.409 321.859 194.326 320.774 195.591 320.774C196.248 320.774 196.816 321.082 197.204 321.6ZM195.8 325.027C196.617 325.027 197.204 324.33 197.204 323.344C197.204 322.367 196.617 321.67 195.8 321.67C194.973 321.67 194.385 322.367 194.385 323.344C194.385 324.33 194.973 325.027 195.8 325.027ZM201.499 325.924C200.174 325.924 199.178 324.818 199.178 323.354C199.178 321.889 200.174 320.774 201.499 320.774C202.545 320.774 203.302 321.282 203.67 322.258L202.804 322.616C202.505 321.969 202.106 321.67 201.499 321.67C200.732 321.67 200.154 322.397 200.154 323.354C200.154 324.3 200.732 325.027 201.499 325.027C202.106 325.027 202.505 324.738 202.804 324.091L203.67 324.439C203.302 325.416 202.545 325.924 201.499 325.924ZM209.143 325.824H207.987L206.384 323.523L205.537 324.419V325.824H204.561V318.502H205.537V323.174L207.649 320.873H208.884L207.021 322.846L209.143 325.824ZM213.042 321.66L213.102 320.873H213.989V325.246C213.989 326.92 213.092 327.946 211.618 327.946C210.701 327.946 209.865 327.597 209.327 326.989L209.855 326.292C210.353 326.8 210.891 327.039 211.528 327.039C212.474 327.039 213.002 326.402 213.002 325.256V325.067C212.624 325.585 212.056 325.894 211.389 325.894C210.124 325.894 209.207 324.808 209.207 323.324C209.207 321.849 210.134 320.774 211.389 320.774C212.076 320.774 212.664 321.102 213.042 321.66ZM211.598 324.997C212.415 324.997 213.002 324.3 213.002 323.324C213.002 322.367 212.415 321.67 211.598 321.67C210.771 321.67 210.183 322.367 210.183 323.324C210.183 324.3 210.771 324.997 211.598 324.997ZM216.199 325.824H215.222V320.873H216.099L216.139 321.839H216.149C216.388 321.162 216.936 320.764 217.633 320.764C217.753 320.764 217.862 320.774 217.982 320.803L217.922 321.72C217.773 321.68 217.633 321.66 217.484 321.66C216.836 321.66 216.388 322.148 216.238 323.015C216.209 323.204 216.199 323.463 216.199 323.901V325.824ZM220.791 325.924C219.396 325.924 218.4 324.848 218.4 323.354C218.4 321.849 219.396 320.774 220.791 320.774C222.175 320.774 223.181 321.849 223.181 323.354C223.181 324.848 222.175 325.924 220.791 325.924ZM220.791 325.027C221.617 325.027 222.195 324.34 222.195 323.354C222.195 322.357 221.617 321.67 220.791 321.67C219.954 321.67 219.376 322.357 219.376 323.354C219.376 324.34 219.964 325.027 220.791 325.027ZM227.468 322.836V320.873H228.444V325.824H227.567L227.538 324.947C227.229 325.545 226.601 325.924 225.884 325.924C224.818 325.924 224.181 325.196 224.181 323.991V320.873H225.157V323.862C225.157 324.619 225.505 325.027 226.153 325.027C226.83 325.027 227.289 324.569 227.428 323.802C227.458 323.613 227.468 323.383 227.468 322.836ZM232.248 320.774C233.314 320.774 233.951 321.511 233.951 322.706V325.824H232.975V322.836C232.975 322.079 232.626 321.67 231.979 321.67C231.301 321.67 230.843 322.128 230.704 322.895C230.674 323.085 230.664 323.314 230.664 323.872V325.824H229.688V320.873H230.564L230.594 321.76C230.903 321.152 231.531 320.774 232.248 320.774ZM238.752 321.6V318.502H239.738V325.824H238.842L238.792 325.047C238.413 325.595 237.826 325.924 237.138 325.924C235.873 325.924 234.957 324.848 234.957 323.354C234.957 321.849 235.873 320.774 237.138 320.774C237.806 320.774 238.373 321.082 238.752 321.6ZM237.347 325.027C238.174 325.027 238.752 324.34 238.752 323.354C238.752 322.367 238.174 321.67 237.347 321.67C236.511 321.67 235.933 322.357 235.933 323.354C235.933 324.34 236.511 325.027 237.347 325.027Z" fill="#130032"/>
<path d="M156.545 360.836V357.858H157.581V364.98H156.545V361.813H153.029V364.98H151.993V357.858H153.029V360.836H156.545ZM161.023 365.08C159.638 365.08 158.632 364.004 158.632 362.51C158.632 361.006 159.598 359.93 160.973 359.93C162.328 359.93 163.314 360.986 163.314 362.44C163.314 362.59 163.304 362.729 163.284 362.849H159.628C159.748 363.675 160.286 364.203 161.023 364.203C161.601 364.203 162.019 363.964 162.398 363.416L163.165 363.865C162.716 364.652 161.969 365.08 161.023 365.08ZM159.628 362.101H162.288C162.208 361.314 161.69 360.806 160.973 360.806C160.256 360.806 159.748 361.314 159.628 362.101ZM168.001 360.757V360.029H168.988V364.98H168.091L168.041 364.193C167.663 364.751 167.075 365.08 166.388 365.08C165.123 365.08 164.206 363.994 164.206 362.5C164.206 361.016 165.123 359.93 166.388 359.93C167.045 359.93 167.613 360.239 168.001 360.757ZM166.597 364.183C167.414 364.183 168.001 363.486 168.001 362.5C168.001 361.524 167.414 360.826 166.597 360.826C165.77 360.826 165.182 361.524 165.182 362.5C165.182 363.486 165.77 364.183 166.597 364.183ZM173.77 360.757V357.659H174.756V364.98H173.86L173.81 364.203C173.431 364.751 172.844 365.08 172.156 365.08C170.891 365.08 169.975 364.004 169.975 362.51C169.975 361.006 170.891 359.93 172.156 359.93C172.824 359.93 173.392 360.239 173.77 360.757ZM172.366 364.183C173.192 364.183 173.77 363.496 173.77 362.51C173.77 361.524 173.192 360.826 172.366 360.826C171.529 360.826 170.951 361.514 170.951 362.51C170.951 363.496 171.529 364.183 172.366 364.183ZM178.144 365.08C176.759 365.08 175.753 364.004 175.753 362.51C175.753 361.006 176.719 359.93 178.094 359.93C179.449 359.93 180.435 360.986 180.435 362.44C180.435 362.59 180.425 362.729 180.405 362.849H176.749C176.869 363.675 177.407 364.203 178.144 364.203C178.722 364.203 179.14 363.964 179.518 363.416L180.286 363.865C179.837 364.652 179.09 365.08 178.144 365.08ZM176.749 362.101H179.409C179.329 361.314 178.811 360.806 178.094 360.806C177.377 360.806 176.869 361.314 176.749 362.101ZM182.414 364.98H181.438V360.029H182.314L182.354 360.996H182.364C182.603 360.318 183.151 359.92 183.848 359.92C183.968 359.92 184.077 359.93 184.197 359.96L184.137 360.876C183.988 360.836 183.848 360.816 183.699 360.816C183.051 360.816 182.603 361.305 182.454 362.171C182.424 362.36 182.414 362.619 182.414 363.058V364.98ZM192.223 357.858V358.834H189.982V364.98H188.936V358.834H186.695V357.858H192.223ZM193.786 365.08C192.402 365.08 191.395 364.004 191.395 362.51C191.395 361.006 192.362 359.93 193.736 359.93C195.091 359.93 196.077 360.986 196.077 362.44C196.077 362.59 196.067 362.729 196.047 362.849H192.392C192.511 363.675 193.049 364.203 193.786 364.203C194.364 364.203 194.782 363.964 195.161 363.416L195.928 363.865C195.48 364.652 194.733 365.08 193.786 365.08ZM192.392 362.101H195.051C194.972 361.314 194.454 360.806 193.736 360.806C193.019 360.806 192.511 361.314 192.392 362.101ZM199.347 362.49L201.12 364.98H200.005L198.73 363.058L197.445 364.98H196.329L198.102 362.49L196.369 360.029H197.485L198.72 361.902L199.965 360.029H201.081L199.347 362.49ZM204.029 365.08C202.873 365.08 202.316 364.462 202.316 363.147V360.926H201.499V360.029H202.316V358.495H203.292V360.029H204.756V360.926H203.292V363.157C203.292 363.845 203.571 364.183 204.138 364.183C204.338 364.183 204.557 364.143 204.776 364.064L204.905 364.94C204.637 365.04 204.328 365.08 204.029 365.08Z" fill="#130032"/>
<path d="M155.768 400.391C156.625 400.68 157.103 401.298 157.103 402.164C157.103 403.379 156.117 404.136 154.533 404.136H151.993V397.014H154.304C155.818 397.014 156.724 397.711 156.724 398.877C156.724 399.554 156.376 400.072 155.768 400.391ZM154.284 397.97H153.029V399.983H154.284C155.22 399.983 155.708 399.624 155.708 398.957C155.708 398.299 155.24 397.97 154.284 397.97ZM153.029 403.17H154.513C155.549 403.17 156.097 402.802 156.097 402.094C156.097 401.307 155.569 400.909 154.513 400.909H153.029V403.17ZM161.309 401.148V399.186H162.285V404.136H161.408L161.379 403.26C161.07 403.858 160.442 404.236 159.725 404.236C158.659 404.236 158.022 403.509 158.022 402.304V399.186H158.998V402.174C158.998 402.931 159.346 403.34 159.994 403.34C160.671 403.34 161.13 402.881 161.269 402.114C161.299 401.925 161.309 401.696 161.309 401.148ZM165.662 404.236C164.507 404.236 163.949 403.618 163.949 402.304V400.082H163.132V399.186H163.949V397.652H164.925V399.186H166.39V400.082H164.925V402.314C164.925 403.001 165.204 403.34 165.772 403.34C165.971 403.34 166.19 403.3 166.409 403.22L166.539 404.097C166.27 404.196 165.961 404.236 165.662 404.236ZM169.622 404.236C168.466 404.236 167.908 403.618 167.908 402.304V400.082H167.091V399.186H167.908V397.652H168.884V399.186H170.349V400.082H168.884V402.314C168.884 403.001 169.163 403.34 169.731 403.34C169.93 403.34 170.15 403.3 170.369 403.22L170.498 404.097C170.229 404.196 169.92 404.236 169.622 404.236ZM173.367 404.236C171.973 404.236 170.977 403.16 170.977 401.666C170.977 400.162 171.973 399.086 173.367 399.086C174.752 399.086 175.758 400.162 175.758 401.666C175.758 403.16 174.752 404.236 173.367 404.236ZM173.367 403.34C174.194 403.34 174.772 402.652 174.772 401.666C174.772 400.67 174.194 399.983 173.367 399.983C172.531 399.983 171.953 400.67 171.953 401.666C171.953 402.652 172.541 403.34 173.367 403.34ZM179.309 399.086C180.375 399.086 181.012 399.823 181.012 401.019V404.136H180.036V401.148C180.036 400.391 179.687 399.983 179.04 399.983C178.363 399.983 177.904 400.441 177.765 401.208C177.735 401.397 177.725 401.626 177.725 402.184V404.136H176.749V399.186H177.625L177.655 400.072C177.964 399.465 178.592 399.086 179.309 399.086ZM188.424 400.391C189.281 400.68 189.759 401.298 189.759 402.164C189.759 403.379 188.773 404.136 187.189 404.136H184.649V397.014H186.96C188.474 397.014 189.381 397.711 189.381 398.877C189.381 399.554 189.032 400.072 188.424 400.391ZM186.94 397.97H185.685V399.983H186.94C187.876 399.983 188.365 399.624 188.365 398.957C188.365 398.299 187.896 397.97 186.94 397.97ZM185.685 403.17H187.169C188.205 403.17 188.753 402.802 188.753 402.094C188.753 401.307 188.225 400.909 187.169 400.909H185.685V403.17ZM194.432 399.913V399.186H195.418V404.136H194.522L194.472 403.35C194.093 403.907 193.506 404.236 192.818 404.236C191.553 404.236 190.637 403.15 190.637 401.656C190.637 400.172 191.553 399.086 192.818 399.086C193.476 399.086 194.043 399.395 194.432 399.913ZM193.027 403.34C193.844 403.34 194.432 402.642 194.432 401.656C194.432 400.68 193.844 399.983 193.027 399.983C192.201 399.983 191.613 400.68 191.613 401.656C191.613 402.642 192.201 403.34 193.027 403.34ZM198.726 404.236C197.401 404.236 196.405 403.13 196.405 401.666C196.405 400.202 197.401 399.086 198.726 399.086C199.772 399.086 200.529 399.594 200.898 400.57L200.031 400.929C199.732 400.281 199.334 399.983 198.726 399.983C197.959 399.983 197.382 400.71 197.382 401.666C197.382 402.612 197.959 403.34 198.726 403.34C199.334 403.34 199.732 403.051 200.031 402.403L200.898 402.752C200.529 403.728 199.772 404.236 198.726 404.236ZM206.371 404.136H205.215L203.611 401.835L202.765 402.732V404.136H201.788V396.815H202.765V401.487L204.876 399.186H206.112L204.249 401.158L206.371 404.136ZM210.27 399.973L210.33 399.186H211.216V403.559C211.216 405.232 210.32 406.258 208.845 406.258C207.929 406.258 207.092 405.91 206.554 405.302L207.082 404.605C207.58 405.113 208.118 405.352 208.756 405.352C209.702 405.352 210.23 404.714 210.23 403.569V403.379C209.851 403.897 209.284 404.206 208.616 404.206C207.351 404.206 206.435 403.12 206.435 401.636C206.435 400.162 207.361 399.086 208.616 399.086C209.304 399.086 209.891 399.415 210.27 399.973ZM208.825 403.31C209.642 403.31 210.23 402.612 210.23 401.636C210.23 400.68 209.642 399.983 208.825 399.983C207.999 399.983 207.411 400.68 207.411 401.636C207.411 402.612 207.999 403.31 208.825 403.31ZM213.426 404.136H212.45V399.186H213.327L213.366 400.152H213.376C213.615 399.475 214.163 399.076 214.861 399.076C214.98 399.076 215.09 399.086 215.209 399.116L215.15 400.032C215 399.993 214.861 399.973 214.711 399.973C214.064 399.973 213.615 400.461 213.466 401.327C213.436 401.517 213.426 401.776 213.426 402.214V404.136ZM218.018 404.236C216.624 404.236 215.628 403.16 215.628 401.666C215.628 400.162 216.624 399.086 218.018 399.086C219.403 399.086 220.409 400.162 220.409 401.666C220.409 403.16 219.403 404.236 218.018 404.236ZM218.018 403.34C218.845 403.34 219.423 402.652 219.423 401.666C219.423 400.67 218.845 399.983 218.018 399.983C217.181 399.983 216.604 400.67 216.604 401.666C216.604 402.652 217.191 403.34 218.018 403.34ZM224.695 401.148V399.186H225.672V404.136H224.795L224.765 403.26C224.456 403.858 223.829 404.236 223.112 404.236C222.046 404.236 221.408 403.509 221.408 402.304V399.186H222.384V402.174C222.384 402.931 222.733 403.34 223.381 403.34C224.058 403.34 224.516 402.881 224.656 402.114C224.685 401.925 224.695 401.696 224.695 401.148ZM229.475 399.086C230.541 399.086 231.179 399.823 231.179 401.019V404.136H230.203V401.148C230.203 400.391 229.854 399.983 229.206 399.983C228.529 399.983 228.071 400.441 227.931 401.208C227.901 401.397 227.891 401.626 227.891 402.184V404.136H226.915V399.186H227.792L227.822 400.072C228.131 399.465 228.758 399.086 229.475 399.086ZM235.98 399.913V396.815H236.966V404.136H236.069L236.019 403.359C235.641 403.907 235.053 404.236 234.366 404.236C233.101 404.236 232.184 403.16 232.184 401.666C232.184 400.162 233.101 399.086 234.366 399.086C235.033 399.086 235.601 399.395 235.98 399.913ZM234.575 403.34C235.402 403.34 235.98 402.652 235.98 401.666C235.98 400.68 235.402 399.983 234.575 399.983C233.738 399.983 233.16 400.67 233.16 401.666C233.16 402.652 233.738 403.34 234.575 403.34Z" fill="#130032"/>
<path d="M155.768 439.547C156.625 439.836 157.103 440.454 157.103 441.32C157.103 442.536 156.117 443.293 154.533 443.293H151.993V436.17H154.304C155.818 436.17 156.724 436.868 156.724 438.033C156.724 438.711 156.376 439.229 155.768 439.547ZM154.284 437.127H153.029V439.139H154.284C155.22 439.139 155.708 438.78 155.708 438.113C155.708 437.455 155.24 437.127 154.284 437.127ZM153.029 442.326H154.513C155.549 442.326 156.097 441.958 156.097 441.251C156.097 440.464 155.569 440.065 154.513 440.065H153.029V442.326ZM161.309 440.304V438.342H162.285V443.293H161.408L161.379 442.416C161.07 443.014 160.442 443.392 159.725 443.392C158.659 443.392 158.022 442.665 158.022 441.46V438.342H158.998V441.33C158.998 442.087 159.346 442.496 159.994 442.496C160.671 442.496 161.13 442.038 161.269 441.271C161.299 441.081 161.309 440.852 161.309 440.304ZM165.662 443.392C164.507 443.392 163.949 442.775 163.949 441.46V439.238H163.132V438.342H163.949V436.808H164.925V438.342H166.39V439.238H164.925V441.47C164.925 442.157 165.204 442.496 165.772 442.496C165.971 442.496 166.19 442.456 166.409 442.376L166.539 443.253C166.27 443.352 165.961 443.392 165.662 443.392ZM169.622 443.392C168.466 443.392 167.908 442.775 167.908 441.46V439.238H167.091V438.342H167.908V436.808H168.884V438.342H170.349V439.238H168.884V441.47C168.884 442.157 169.163 442.496 169.731 442.496C169.93 442.496 170.15 442.456 170.369 442.376L170.498 443.253C170.229 443.352 169.92 443.392 169.622 443.392ZM173.367 443.392C171.973 443.392 170.977 442.317 170.977 440.822C170.977 439.318 171.973 438.242 173.367 438.242C174.752 438.242 175.758 439.318 175.758 440.822C175.758 442.317 174.752 443.392 173.367 443.392ZM173.367 442.496C174.194 442.496 174.772 441.808 174.772 440.822C174.772 439.826 174.194 439.139 173.367 439.139C172.531 439.139 171.953 439.826 171.953 440.822C171.953 441.808 172.541 442.496 173.367 442.496ZM179.309 438.242C180.375 438.242 181.012 438.979 181.012 440.175V443.293H180.036V440.304C180.036 439.547 179.687 439.139 179.04 439.139C178.363 439.139 177.904 439.597 177.765 440.364C177.735 440.553 177.725 440.782 177.725 441.34V443.293H176.749V438.342H177.625L177.655 439.229C177.964 438.621 178.592 438.242 179.309 438.242ZM189.451 436.17V437.147H187.209V443.293H186.163V437.147H183.922V436.17H189.451ZM191.014 443.392C189.629 443.392 188.623 442.317 188.623 440.822C188.623 439.318 189.589 438.242 190.964 438.242C192.319 438.242 193.305 439.298 193.305 440.753C193.305 440.902 193.295 441.041 193.275 441.161H189.619C189.739 441.988 190.277 442.516 191.014 442.516C191.592 442.516 192.01 442.277 192.388 441.729L193.155 442.177C192.707 442.964 191.96 443.392 191.014 443.392ZM189.619 440.414H192.279C192.199 439.627 191.681 439.119 190.964 439.119C190.247 439.119 189.739 439.627 189.619 440.414ZM196.575 440.802L198.348 443.293H197.232L195.957 441.37L194.672 443.293H193.557L195.33 440.802L193.596 438.342H194.712L195.947 440.215L197.192 438.342H198.308L196.575 440.802ZM201.256 443.392C200.101 443.392 199.543 442.775 199.543 441.46V439.238H198.726V438.342H199.543V436.808H200.519V438.342H201.984V439.238H200.519V441.47C200.519 442.157 200.798 442.496 201.366 442.496C201.565 442.496 201.784 442.456 202.004 442.376L202.133 443.253C201.864 443.352 201.555 443.392 201.256 443.392Z" fill="#130032"/>
<path d="M119.937 290.812C117.174 290.812 115.146 288.581 115.146 285.531C115.146 282.466 117.174 280.236 119.937 280.236C121.75 280.236 123.261 281.186 124.095 282.812L122.8 283.502C122.196 282.308 121.174 281.646 119.937 281.646C118.023 281.646 116.642 283.258 116.642 285.531C116.642 287.79 118.023 289.402 119.937 289.402C121.174 289.402 122.196 288.74 122.8 287.56L124.095 288.25C123.261 289.876 121.736 290.812 119.937 290.812ZM128.546 290.812C126.531 290.812 125.092 289.258 125.092 287.099C125.092 284.927 126.531 283.373 128.546 283.373C130.546 283.373 131.999 284.927 131.999 287.099C131.999 289.258 130.546 290.812 128.546 290.812ZM128.546 289.517C129.74 289.517 130.574 288.524 130.574 287.099C130.574 285.661 129.74 284.668 128.546 284.668C127.337 284.668 126.502 285.661 126.502 287.099C126.502 288.524 127.351 289.517 128.546 289.517ZM134.84 290.668H133.43V280.092H134.84V290.668ZM139.73 290.812C137.716 290.812 136.277 289.258 136.277 287.099C136.277 284.927 137.716 283.373 139.73 283.373C141.73 283.373 143.184 284.927 143.184 287.099C143.184 289.258 141.73 290.812 139.73 290.812ZM139.73 289.517C140.925 289.517 141.759 288.524 141.759 287.099C141.759 285.661 140.925 284.668 139.73 284.668C138.522 284.668 137.687 285.661 137.687 287.099C137.687 288.524 138.536 289.517 139.73 289.517ZM146.025 290.668H144.615V283.517H145.881L145.938 284.912H145.953C146.298 283.934 147.09 283.358 148.097 283.358C148.269 283.358 148.428 283.373 148.6 283.416L148.514 284.74C148.298 284.682 148.097 284.653 147.881 284.653C146.946 284.653 146.298 285.358 146.082 286.61C146.039 286.884 146.025 287.258 146.025 287.891V290.668ZM152.236 290.812C150.955 290.812 149.79 290.337 149.099 289.603L149.804 288.625C150.437 289.258 151.33 289.603 152.193 289.603C153.071 289.603 153.646 289.2 153.646 288.639C153.646 287.977 152.797 287.804 152.035 287.646C150.898 287.43 149.416 287.027 149.416 285.502C149.416 284.236 150.452 283.373 151.948 283.373C153.099 283.373 154.049 283.761 154.84 284.394L154.135 285.387C153.43 284.855 152.682 284.596 151.948 284.596C151.2 284.596 150.754 284.927 150.754 285.43C150.754 286.135 151.675 286.308 152.222 286.409C153.574 286.668 154.984 287.099 154.984 288.596C154.984 289.934 153.862 290.812 152.236 290.812Z" fill="#130032"/>
<rect x="328.054" y="178.054" width="196" height="174" rx="4" fill="#130032"/>
<path fill-rule="evenodd" clip-rule="evenodd" d="M525.304 238.554H504.054V213.554H520.304L525.304 218.554V238.554ZM522.804 236.054H506.554V216.054H519.054V219.804H522.804V236.054Z" fill="white"/>
<path fill-rule="evenodd" clip-rule="evenodd" d="M520.304 224.804H509.054V222.304H520.304V224.804Z" fill="white"/>
<path fill-rule="evenodd" clip-rule="evenodd" d="M517.804 229.804H509.054V227.304H517.804V229.804Z" fill="white"/>
<path d="M400.758 274.054H399.901L399.194 272.172H395.837L395.12 274.054H394.273L396.993 266.932H398.029L400.758 274.054ZM397.521 267.719L396.126 271.405H398.905L397.521 267.719ZM406.82 269.074C407.806 269.074 408.394 269.801 408.394 271.026V274.054H407.637V271.016C407.637 270.219 407.278 269.781 406.641 269.781C405.963 269.781 405.495 270.289 405.366 271.146C405.336 271.355 405.326 271.604 405.326 272.102V274.054H404.579V271.016C404.579 270.229 404.22 269.781 403.593 269.781C402.885 269.781 402.437 270.279 402.308 271.146C402.278 271.355 402.268 271.604 402.268 272.102V274.054H401.511V269.173H402.198L402.218 269.97H402.238C402.517 269.412 403.085 269.074 403.762 269.074C404.469 269.074 404.967 269.452 405.196 270.12C405.485 269.462 406.093 269.074 406.82 269.074ZM409.78 276.087C409.431 276.087 409.202 276.027 408.983 275.937L409.152 275.31C409.292 275.359 409.461 275.399 409.69 275.399C410.119 275.399 410.447 275.14 410.696 274.523L410.925 273.955L408.893 269.173H409.68L411.264 273.038L412.669 269.173H413.456L411.354 274.732C410.955 275.788 410.328 276.087 409.78 276.087ZM421.255 266.932V267.709H418.914V274.054H418.097V267.709H415.756V266.932H421.255ZM422.759 274.154C421.404 274.154 420.418 273.088 420.418 271.614C420.418 270.13 421.364 269.074 422.709 269.074C424.044 269.074 425 270.12 425 271.584C425 271.714 424.99 271.823 424.98 271.923H421.185C421.315 272.839 421.942 273.447 422.759 273.447C423.387 273.447 423.845 273.188 424.263 272.58L424.861 272.969C424.413 273.746 423.685 274.154 422.759 274.154ZM421.195 271.245H424.223C424.144 270.369 423.536 269.781 422.709 269.781C421.912 269.781 421.315 270.369 421.195 271.245ZM431.373 269.074C432.359 269.074 432.947 269.801 432.947 271.026V274.054H432.19V271.016C432.19 270.219 431.831 269.781 431.194 269.781C430.516 269.781 430.048 270.289 429.919 271.146C429.889 271.355 429.879 271.604 429.879 272.102V274.054H429.132V271.016C429.132 270.229 428.773 269.781 428.146 269.781C427.438 269.781 426.99 270.279 426.861 271.146C426.831 271.355 426.821 271.604 426.821 272.102V274.054H426.064V269.173H426.751L426.771 269.97H426.791C427.07 269.412 427.638 269.074 428.315 269.074C429.022 269.074 429.52 269.452 429.749 270.12C430.038 269.462 430.646 269.074 431.373 269.074ZM436.696 269.074C437.971 269.074 438.888 270.13 438.888 271.614C438.888 273.098 437.971 274.154 436.696 274.154C435.969 274.154 435.351 273.795 434.963 273.218V276.087H434.206V269.173H434.903L434.943 270.04C435.332 269.442 435.949 269.074 436.696 269.074ZM436.547 273.447C437.473 273.447 438.131 272.69 438.131 271.614C438.131 270.538 437.473 269.781 436.547 269.781C435.62 269.781 434.963 270.538 434.963 271.614C434.963 272.69 435.62 273.447 436.547 273.447ZM440.702 274.054H439.945V266.733H440.702V274.054ZM444.102 274.154C442.747 274.154 441.761 273.088 441.761 271.614C441.761 270.13 442.707 269.074 444.052 269.074C445.387 269.074 446.343 270.12 446.343 271.584C446.343 271.714 446.333 271.823 446.323 271.923H442.528C442.657 272.839 443.285 273.447 444.102 273.447C444.729 273.447 445.188 273.188 445.606 272.58L446.204 272.969C445.755 273.746 445.028 274.154 444.102 274.154ZM442.538 271.245H445.566C445.486 270.369 444.879 269.781 444.052 269.781C443.255 269.781 442.657 270.369 442.538 271.245ZM449.286 274.154C448.16 274.154 447.652 273.576 447.652 272.291V269.881H446.805V269.173H447.652V267.6H448.409V269.173H449.943V269.881H448.409V272.291C448.409 273.078 448.708 273.447 449.345 273.447C449.545 273.447 449.764 273.407 449.973 273.337L450.073 274.035C449.824 274.114 449.535 274.154 449.286 274.154ZM452.915 274.154C451.551 274.154 450.574 273.098 450.574 271.614C450.574 270.13 451.551 269.074 452.915 269.074C454.28 269.074 455.256 270.13 455.256 271.614C455.256 273.098 454.28 274.154 452.915 274.154ZM452.915 273.447C453.842 273.447 454.499 272.69 454.499 271.614C454.499 270.538 453.842 269.781 452.915 269.781C451.989 269.781 451.331 270.538 451.331 271.614C451.331 272.69 451.989 273.447 452.915 273.447ZM457.074 274.054H456.317V269.173H457.005L457.025 270.13H457.035C457.363 269.452 457.991 269.074 458.748 269.074C459.804 269.074 460.471 269.811 460.471 270.976V274.054H459.714V271.016C459.714 270.209 459.326 269.781 458.608 269.781C457.831 269.781 457.294 270.279 457.124 271.136C457.084 271.335 457.074 271.534 457.074 272.092V274.054ZM465.911 274.154C465.064 274.154 464.277 273.865 463.789 273.347L464.188 272.799C464.616 273.238 465.273 273.477 465.891 273.477C466.538 273.477 467.007 273.168 467.007 272.71C467.007 272.142 466.269 272.002 465.771 271.913C464.994 271.773 464.008 271.494 464.008 270.478C464.008 269.632 464.706 269.074 465.672 269.074C466.419 269.074 467.007 269.273 467.614 269.731L467.216 270.289C466.728 269.94 466.2 269.751 465.672 269.751C465.114 269.751 464.735 270.02 464.735 270.429C464.735 271.006 465.502 271.146 465.871 271.206C466.738 271.355 467.734 271.654 467.734 272.68C467.734 273.576 466.977 274.154 465.911 274.154ZM470.902 274.154C469.547 274.154 468.561 273.088 468.561 271.614C468.561 270.13 469.507 269.074 470.852 269.074C472.187 269.074 473.143 270.12 473.143 271.584C473.143 271.714 473.133 271.823 473.123 271.923H469.328C469.458 272.839 470.085 273.447 470.902 273.447C471.53 273.447 471.988 273.188 472.406 272.58L473.004 272.969C472.556 273.746 471.828 274.154 470.902 274.154ZM469.338 271.245H472.366C472.287 270.369 471.679 269.781 470.852 269.781C470.055 269.781 469.458 270.369 469.338 271.245ZM474.964 274.054H474.207V269.173H474.894L474.914 270.13H474.924C475.253 269.452 475.88 269.074 476.637 269.074C477.693 269.074 478.361 269.811 478.361 270.976V274.054H477.604V271.016C477.604 270.209 477.215 269.781 476.498 269.781C475.721 269.781 475.183 270.279 475.014 271.136C474.974 271.335 474.964 271.534 474.964 272.092V274.054ZM481.514 274.154C480.388 274.154 479.88 273.576 479.88 272.291V269.881H479.034V269.173H479.88V267.6H480.637V269.173H482.171V269.881H480.637V272.291C480.637 273.078 480.936 273.447 481.574 273.447C481.773 273.447 481.992 273.407 482.201 273.337L482.301 274.035C482.052 274.114 481.763 274.154 481.514 274.154ZM485.793 276.087C485.445 276.087 485.215 276.027 484.996 275.937L485.166 275.31C485.305 275.359 485.474 275.399 485.704 275.399C486.132 275.399 486.461 275.14 486.71 274.523L486.939 273.955L484.907 269.173H485.694L487.277 273.038L488.682 269.173H489.469L487.367 274.732C486.969 275.788 486.341 276.087 485.793 276.087ZM492.206 274.154C490.841 274.154 489.865 273.098 489.865 271.614C489.865 270.13 490.841 269.074 492.206 269.074C493.571 269.074 494.547 270.13 494.547 271.614C494.547 273.098 493.571 274.154 492.206 274.154ZM492.206 273.447C493.132 273.447 493.79 272.69 493.79 271.614C493.79 270.538 493.132 269.781 492.206 269.781C491.28 269.781 490.622 270.538 490.622 271.614C490.622 272.69 491.28 273.447 492.206 273.447ZM499.004 269.173H499.761V274.054H499.073L499.053 273.098H499.044C498.715 273.776 498.087 274.154 497.33 274.154C496.274 274.154 495.607 273.417 495.607 272.251V269.173H496.364V272.212C496.364 273.018 496.752 273.447 497.47 273.447C498.247 273.447 498.785 272.949 498.954 272.092C498.994 271.893 499.004 271.694 499.004 271.136V269.173ZM507.136 270.01V269.173H507.893V274.054H507.196L507.156 273.178C506.768 273.785 506.15 274.154 505.403 274.154C504.138 274.154 503.212 273.088 503.212 271.614C503.212 270.14 504.138 269.064 505.403 269.064C506.13 269.064 506.748 269.422 507.136 270.01ZM505.553 273.447C506.469 273.447 507.136 272.68 507.136 271.614C507.136 270.548 506.469 269.781 505.553 269.781C504.636 269.781 503.969 270.548 503.969 271.614C503.969 272.68 504.636 273.447 505.553 273.447ZM515.269 270.01V266.733H516.026V274.054H515.329L515.289 273.188C514.9 273.785 514.283 274.154 513.536 274.154C512.261 274.154 511.344 273.098 511.344 271.614C511.344 270.13 512.261 269.074 513.536 269.074C514.263 269.074 514.88 269.432 515.269 270.01ZM513.685 273.447C514.611 273.447 515.269 272.69 515.269 271.614C515.269 270.538 514.611 269.781 513.685 269.781C512.759 269.781 512.101 270.538 512.101 271.614C512.101 272.69 512.759 273.447 513.685 273.447ZM519.424 274.154C518.06 274.154 517.084 273.098 517.084 271.614C517.084 270.13 518.06 269.074 519.424 269.074C520.789 269.074 521.765 270.13 521.765 271.614C521.765 273.098 520.789 274.154 519.424 274.154ZM519.424 273.447C520.351 273.447 521.008 272.69 521.008 271.614C521.008 270.538 520.351 269.781 519.424 269.781C518.498 269.781 517.841 270.538 517.841 271.614C517.841 272.69 518.498 273.447 519.424 273.447ZM524.997 274.154C523.702 274.154 522.726 273.058 522.726 271.614C522.726 270.17 523.702 269.074 524.997 269.074C526.003 269.074 526.71 269.542 527.089 270.468L526.421 270.777C526.103 270.1 525.654 269.781 524.997 269.781C524.14 269.781 523.483 270.578 523.483 271.614C523.483 272.65 524.14 273.447 524.997 273.447C525.654 273.447 526.103 273.128 526.421 272.451L527.089 272.759C526.71 273.686 526.003 274.154 524.997 274.154ZM531.378 269.173H532.135V274.054H531.448L531.428 273.098H531.418C531.089 273.776 530.461 274.154 529.704 274.154C528.648 274.154 527.981 273.417 527.981 272.251V269.173H528.738V272.212C528.738 273.018 529.127 273.447 529.844 273.447C530.621 273.447 531.159 272.949 531.328 272.092C531.368 271.893 531.378 271.694 531.378 271.136V269.173ZM538.749 269.074C539.735 269.074 540.323 269.801 540.323 271.026V274.054H539.566V271.016C539.566 270.219 539.207 269.781 538.57 269.781C537.892 269.781 537.424 270.289 537.295 271.146C537.265 271.355 537.255 271.604 537.255 272.102V274.054H536.508V271.016C536.508 270.229 536.149 269.781 535.521 269.781C534.814 269.781 534.366 270.279 534.236 271.146C534.207 271.355 534.197 271.604 534.197 272.102V274.054H533.44V269.173H534.127L534.147 269.97H534.167C534.446 269.412 535.013 269.074 535.691 269.074C536.398 269.074 536.896 269.452 537.125 270.12C537.414 269.462 538.022 269.074 538.749 269.074ZM543.715 274.154C542.36 274.154 541.374 273.088 541.374 271.614C541.374 270.13 542.32 269.074 543.665 269.074C545 269.074 545.956 270.12 545.956 271.584C545.956 271.714 545.946 271.823 545.936 271.923H542.141C542.27 272.839 542.898 273.447 543.715 273.447C544.342 273.447 544.801 273.188 545.219 272.58L545.817 272.969C545.368 273.746 544.641 274.154 543.715 274.154ZM542.151 271.245H545.179C545.099 270.369 544.492 269.781 543.665 269.781C542.868 269.781 542.27 270.369 542.151 271.245ZM547.777 274.054H547.02V269.173H547.707L547.727 270.13H547.737C548.066 269.452 548.693 269.074 549.45 269.074C550.506 269.074 551.173 269.811 551.173 270.976V274.054H550.416V271.016C550.416 270.209 550.028 269.781 549.311 269.781C548.534 269.781 547.996 270.279 547.826 271.136C547.787 271.335 547.777 271.534 547.777 272.092V274.054ZM554.327 274.154C553.201 274.154 552.693 273.576 552.693 272.291V269.881H551.846V269.173H552.693V267.6H553.45V269.173H554.984V269.881H553.45V272.291C553.45 273.078 553.749 273.447 554.387 273.447C554.586 273.447 554.805 273.407 555.014 273.337L555.114 274.035C554.865 274.114 554.576 274.154 554.327 274.154Z" fill="white"/>
<rect x="328.054" y="393.761" width="387.922" height="9.02144" rx="2.61622" fill="#130032" fill-opacity="0.1"/>
<rect x="328.054" y="458.851" width="387.922" height="9.02144" rx="2.61622" fill="#130032" fill-opacity="0.1"/>
<rect x="328.054" y="491.054" width="146" height="9" rx="2.61622" fill="#130032" fill-opacity="0.1"/>
<rect x="328.054" y="377.972" width="387.922" height="9.02144" rx="2.61622" fill="#130032" fill-opacity="0.1"/>
<rect x="328.054" y="443.062" width="387.922" height="9.02144" rx="2.61622" fill="#130032" fill-opacity="0.1"/>
<rect x="328.054" y="474.773" width="387.922" height="9.02144" rx="2.61622" fill="#130032" fill-opacity="0.1"/>
<rect x="328.054" y="410.517" width="219.469" height="9.17931" rx="2.61622" fill="#130032" fill-opacity="0.1"/>
<circle cx="514.054" cy="226.054" r="23" stroke="white" stroke-width="2"/>
</g>
<rect x="450.054" y="301.054" width="112" height="30" rx="4.38" fill="#0069EC"/>
<path d="M473.245 315.977L474.447 318.054H473.634L472.543 316.13C472.46 316.137 472.376 316.137 472.286 316.137H471.514V318.054H470.792V313.086H472.286C473.453 313.086 474.183 313.67 474.183 314.601C474.183 315.268 473.842 315.747 473.245 315.977ZM471.514 313.753V315.476H472.293C473.064 315.476 473.46 315.185 473.46 314.601C473.46 314.052 473.05 313.753 472.286 313.753H471.514ZM478.88 313.086V313.767H476.136V315.164H478.359V315.838H476.136V317.373H478.88V318.054H475.413V313.086H478.88ZM481.952 317.186L483.446 313.086H484.197L482.335 318.054H481.563L479.701 313.086H480.451L481.952 317.186ZM485.785 318.054H485.062V313.086H485.785V318.054ZM490.586 313.086V313.767H487.841V315.164H490.065V315.838H487.841V317.373H490.586V318.054H487.119V313.086H490.586ZM496.11 316.943L497.02 313.086H497.764L496.52 318.054H495.776L494.63 314.156L493.49 318.054H492.747L491.503 313.086H492.239L493.157 316.943L494.282 313.086H494.977L496.11 316.943ZM502.381 313.086C503.771 313.086 504.751 314.114 504.751 315.574C504.751 317.026 503.771 318.054 502.381 318.054H500.602V313.086H502.381ZM501.325 317.373H502.381C503.354 317.373 504.028 316.644 504.028 315.574C504.028 314.497 503.361 313.767 502.381 313.767H501.325V317.373ZM508.105 318.124C506.771 318.124 505.791 317.054 505.791 315.574C505.791 314.094 506.764 313.017 508.105 313.017C509.453 313.017 510.426 314.094 510.426 315.574C510.426 317.054 509.453 318.124 508.105 318.124ZM508.105 317.443C509.036 317.443 509.703 316.665 509.703 315.574C509.703 314.476 509.043 313.698 508.105 313.698C507.174 313.698 506.514 314.476 506.514 315.574C506.514 316.665 507.174 317.443 508.105 317.443ZM513.785 318.124C512.45 318.124 511.471 317.047 511.471 315.574C511.471 314.094 512.45 313.017 513.785 313.017C514.66 313.017 515.39 313.475 515.793 314.26L515.167 314.594C514.876 314.017 514.382 313.698 513.785 313.698C512.86 313.698 512.193 314.476 512.193 315.574C512.193 316.665 512.86 317.443 513.785 317.443C514.382 317.443 514.876 317.123 515.167 316.553L515.793 316.887C515.39 317.672 514.653 318.124 513.785 318.124ZM518.738 318.124C517.508 318.124 516.792 317.318 516.792 315.921V313.086H517.515V315.935C517.515 316.936 517.932 317.443 518.738 317.443C519.544 317.443 519.961 316.936 519.961 315.935V313.086H520.691V315.921C520.691 317.318 519.975 318.124 518.738 318.124ZM526.766 313.086V318.054H526.051V314.406L524.577 318.054H524.133L522.653 314.399V318.054H521.937V313.086H522.812L524.355 316.922L525.891 313.086H526.766ZM531.566 313.086V313.767H528.821V315.164H531.045V315.838H528.821V317.373H531.566V318.054H528.098V313.086H531.566ZM535.943 316.984V313.086H536.673V318.054H535.797L533.469 314.142V318.054H532.747V313.086H533.622L535.943 316.984ZM541.525 313.086V313.767H539.962V318.054H539.232V313.767H537.668V313.086H541.525Z" fill="white"/>
</g>
<defs>
<clipPath id="clip0_57_1343">
<path d="M86.0542 94.0545C86.0542 89.6362 89.6359 86.0544 94.0542 86.0544H516V516H86.0542V94.0545Z" fill="white"/>
</clipPath>
<clipPath id="clip1_57_1343">
<rect width="430" height="430" fill="white" transform="translate(86.0542 86.0544)"/>
</clipPath>
</defs>
</svg>
